<mxfile host="app.diagrams.net" modified="2022-06-03T13:49:28.132Z" agent="5.0 (Windows NT 10.0; Win64; x64) AppleWebKit/537.36 (KHTML, like Gecko) Chrome/102.0.0.0 Safari/537.36" etag="Bd8mqxKevJn4zc6rZ6aS" version="18.1.2" type="github">
  <diagram id="FL5VuHu-s2ym-sRUHW1q" name="Page-1">
    <mxGraphModel dx="1423" dy="869" grid="1" gridSize="10" guides="1" tooltips="1" connect="1" arrows="1" fold="1" page="1" pageScale="1" pageWidth="827" pageHeight="1169" math="0" shadow="0">
      <root>
        <mxCell id="0" />
        <mxCell id="1" parent="0" />
        <mxCell id="CGjeRFSQtYmmBpS__NRT-2" style="edgeStyle=orthogonalEdgeStyle;rounded=0;orthogonalLoop=1;jettySize=auto;html=1;exitX=0.5;exitY=1;exitDx=0;exitDy=0;fontSize=14;entryX=0.5;entryY=0;entryDx=0;entryDy=0;" edge="1" parent="1" source="CGjeRFSQtYmmBpS__NRT-1" target="CGjeRFSQtYmmBpS__NRT-3">
          <mxGeometry relative="1" as="geometry">
            <mxPoint x="299.8965517241379" y="100" as="targetPoint" />
          </mxGeometry>
        </mxCell>
        <mxCell id="CGjeRFSQtYmmBpS__NRT-1" value="开始" style="rounded=1;whiteSpace=wrap;html=1;fontSize=14;" vertex="1" parent="1">
          <mxGeometry x="260" y="40" width="80" height="30" as="geometry" />
        </mxCell>
        <mxCell id="CGjeRFSQtYmmBpS__NRT-6" value="" style="edgeStyle=orthogonalEdgeStyle;rounded=0;orthogonalLoop=1;jettySize=auto;html=1;fontSize=14;" edge="1" parent="1" source="CGjeRFSQtYmmBpS__NRT-3" target="CGjeRFSQtYmmBpS__NRT-5">
          <mxGeometry relative="1" as="geometry" />
        </mxCell>
        <mxCell id="CGjeRFSQtYmmBpS__NRT-3" value="接收到数据包" style="rounded=0;whiteSpace=wrap;html=1;fontSize=14;" vertex="1" parent="1">
          <mxGeometry x="231.25" y="100" width="137.5" height="40" as="geometry" />
        </mxCell>
        <mxCell id="CGjeRFSQtYmmBpS__NRT-8" value="" style="edgeStyle=orthogonalEdgeStyle;rounded=0;orthogonalLoop=1;jettySize=auto;html=1;fontSize=14;" edge="1" parent="1" source="CGjeRFSQtYmmBpS__NRT-5" target="CGjeRFSQtYmmBpS__NRT-7">
          <mxGeometry relative="1" as="geometry" />
        </mxCell>
        <mxCell id="CGjeRFSQtYmmBpS__NRT-11" value="" style="edgeStyle=orthogonalEdgeStyle;rounded=0;orthogonalLoop=1;jettySize=auto;html=1;fontSize=14;" edge="1" parent="1" source="CGjeRFSQtYmmBpS__NRT-5" target="CGjeRFSQtYmmBpS__NRT-10">
          <mxGeometry relative="1" as="geometry" />
        </mxCell>
        <mxCell id="CGjeRFSQtYmmBpS__NRT-5" value="准入控制" style="rhombus;whiteSpace=wrap;html=1;fontSize=14;rounded=0;" vertex="1" parent="1">
          <mxGeometry x="217.5" y="170" width="165" height="60" as="geometry" />
        </mxCell>
        <mxCell id="CGjeRFSQtYmmBpS__NRT-17" value="" style="edgeStyle=orthogonalEdgeStyle;rounded=0;orthogonalLoop=1;jettySize=auto;html=1;fontSize=14;" edge="1" parent="1" source="CGjeRFSQtYmmBpS__NRT-7" target="CGjeRFSQtYmmBpS__NRT-16">
          <mxGeometry relative="1" as="geometry" />
        </mxCell>
        <mxCell id="CGjeRFSQtYmmBpS__NRT-7" value="查找转发表，确定路由到的端口 x" style="whiteSpace=wrap;html=1;fontSize=14;rounded=0;" vertex="1" parent="1">
          <mxGeometry x="240" y="280" width="120" height="50" as="geometry" />
        </mxCell>
        <mxCell id="CGjeRFSQtYmmBpS__NRT-9" value="通过" style="text;html=1;align=center;verticalAlign=middle;resizable=0;points=[];autosize=1;strokeColor=none;fillColor=none;fontSize=14;" vertex="1" parent="1">
          <mxGeometry x="300" y="240" width="40" height="20" as="geometry" />
        </mxCell>
        <mxCell id="CGjeRFSQtYmmBpS__NRT-10" value="丢弃" style="whiteSpace=wrap;html=1;fontSize=14;rounded=0;" vertex="1" parent="1">
          <mxGeometry x="460" y="180" width="100" height="40" as="geometry" />
        </mxCell>
        <mxCell id="CGjeRFSQtYmmBpS__NRT-12" value="未通过" style="text;html=1;align=center;verticalAlign=middle;resizable=0;points=[];autosize=1;strokeColor=none;fillColor=none;fontSize=14;" vertex="1" parent="1">
          <mxGeometry x="390" y="180" width="60" height="20" as="geometry" />
        </mxCell>
        <mxCell id="CGjeRFSQtYmmBpS__NRT-20" value="" style="edgeStyle=orthogonalEdgeStyle;rounded=0;orthogonalLoop=1;jettySize=auto;html=1;fontSize=14;" edge="1" parent="1" source="CGjeRFSQtYmmBpS__NRT-16" target="CGjeRFSQtYmmBpS__NRT-19">
          <mxGeometry relative="1" as="geometry" />
        </mxCell>
        <mxCell id="CGjeRFSQtYmmBpS__NRT-26" value="" style="edgeStyle=orthogonalEdgeStyle;rounded=0;orthogonalLoop=1;jettySize=auto;html=1;fontSize=14;" edge="1" parent="1" source="CGjeRFSQtYmmBpS__NRT-16" target="CGjeRFSQtYmmBpS__NRT-25">
          <mxGeometry relative="1" as="geometry" />
        </mxCell>
        <mxCell id="CGjeRFSQtYmmBpS__NRT-16" value="缓冲区使用量到达PFC阈值" style="rhombus;whiteSpace=wrap;html=1;fontSize=14;rounded=0;" vertex="1" parent="1">
          <mxGeometry x="186.25" y="370" width="227.5" height="70" as="geometry" />
        </mxCell>
        <mxCell id="CGjeRFSQtYmmBpS__NRT-19" value="向上游实体发送PFC暂停帧" style="whiteSpace=wrap;html=1;fontSize=14;rounded=0;" vertex="1" parent="1">
          <mxGeometry x="530" y="380" width="185" height="50" as="geometry" />
        </mxCell>
        <mxCell id="CGjeRFSQtYmmBpS__NRT-21" value="是" style="text;html=1;align=center;verticalAlign=middle;resizable=0;points=[];autosize=1;strokeColor=none;fillColor=none;fontSize=14;" vertex="1" parent="1">
          <mxGeometry x="460" y="380" width="30" height="20" as="geometry" />
        </mxCell>
        <mxCell id="CGjeRFSQtYmmBpS__NRT-24" value="否" style="text;html=1;align=center;verticalAlign=middle;resizable=0;points=[];autosize=1;strokeColor=none;fillColor=none;fontSize=14;" vertex="1" parent="1">
          <mxGeometry x="305" y="450" width="30" height="20" as="geometry" />
        </mxCell>
        <mxCell id="CGjeRFSQtYmmBpS__NRT-27" style="edgeStyle=orthogonalEdgeStyle;rounded=0;orthogonalLoop=1;jettySize=auto;html=1;exitX=1;exitY=0.5;exitDx=0;exitDy=0;fontSize=14;entryX=0;entryY=0.5;entryDx=0;entryDy=0;" edge="1" parent="1" source="CGjeRFSQtYmmBpS__NRT-25" target="CGjeRFSQtYmmBpS__NRT-29">
          <mxGeometry relative="1" as="geometry">
            <mxPoint x="530" y="510" as="targetPoint" />
          </mxGeometry>
        </mxCell>
        <mxCell id="CGjeRFSQtYmmBpS__NRT-34" value="" style="edgeStyle=orthogonalEdgeStyle;rounded=0;orthogonalLoop=1;jettySize=auto;html=1;fontSize=14;" edge="1" parent="1" source="CGjeRFSQtYmmBpS__NRT-25" target="CGjeRFSQtYmmBpS__NRT-33">
          <mxGeometry relative="1" as="geometry" />
        </mxCell>
        <mxCell id="CGjeRFSQtYmmBpS__NRT-25" value="端口 x 的缓冲区使用量超过设置的阈值" style="whiteSpace=wrap;html=1;fontSize=14;rounded=0;" vertex="1" parent="1">
          <mxGeometry x="175" y="480" width="250" height="60" as="geometry" />
        </mxCell>
        <mxCell id="CGjeRFSQtYmmBpS__NRT-28" value="是" style="text;html=1;align=center;verticalAlign=middle;resizable=0;points=[];autosize=1;strokeColor=none;fillColor=none;fontSize=14;" vertex="1" parent="1">
          <mxGeometry x="460" y="480" width="30" height="20" as="geometry" />
        </mxCell>
        <mxCell id="CGjeRFSQtYmmBpS__NRT-29" value="查找转发表，向上游实体转发数据包" style="whiteSpace=wrap;html=1;fontSize=14;rounded=0;" vertex="1" parent="1">
          <mxGeometry x="530" y="485" width="190" height="50" as="geometry" />
        </mxCell>
        <mxCell id="CGjeRFSQtYmmBpS__NRT-31" value="否" style="text;html=1;align=center;verticalAlign=middle;resizable=0;points=[];autosize=1;strokeColor=none;fillColor=none;fontSize=14;" vertex="1" parent="1">
          <mxGeometry x="305" y="565" width="30" height="20" as="geometry" />
        </mxCell>
        <mxCell id="CGjeRFSQtYmmBpS__NRT-36" style="edgeStyle=orthogonalEdgeStyle;rounded=0;orthogonalLoop=1;jettySize=auto;html=1;exitX=0.5;exitY=1;exitDx=0;exitDy=0;entryX=0.5;entryY=0;entryDx=0;entryDy=0;fontSize=14;" edge="1" parent="1" source="CGjeRFSQtYmmBpS__NRT-33" target="CGjeRFSQtYmmBpS__NRT-35">
          <mxGeometry relative="1" as="geometry" />
        </mxCell>
        <mxCell id="CGjeRFSQtYmmBpS__NRT-33" value="正常转发" style="whiteSpace=wrap;html=1;fontSize=14;rounded=0;" vertex="1" parent="1">
          <mxGeometry x="240" y="600" width="120" height="40" as="geometry" />
        </mxCell>
        <mxCell id="CGjeRFSQtYmmBpS__NRT-35" value="结束" style="rounded=1;whiteSpace=wrap;html=1;fontSize=14;" vertex="1" parent="1">
          <mxGeometry x="260" y="680" width="80" height="30" as="geometry" />
        </mxCell>
      </root>
    </mxGraphModel>
  </diagram>
</mxfile>
